<mxfile host="app.diagrams.net" agent="Mozilla/5.0 (Windows NT 10.0; Win64; x64; rv:144.0) Gecko/20100101 Firefox/144.0" version="28.2.7">
  <diagram name="Page-1" id="MYmgYmZSPrmOpTgmFxYv">
    <mxGraphModel grid="1" page="1" gridSize="10" guides="1" tooltips="1" connect="1" arrows="1" fold="1" pageScale="1" pageWidth="850" pageHeight="1100" math="0" shadow="0">
      <root>
        <mxCell id="0" />
        <mxCell id="1" parent="0" />
        <mxCell id="A9_kv3PDVXodYaufjPdy-2" value="&lt;div&gt;Store&lt;/div&gt;" style="swimlane;whiteSpace=wrap;html=1;" vertex="1" parent="1">
          <mxGeometry x="40" y="40" width="200" height="280" as="geometry" />
        </mxCell>
        <mxCell id="A9_kv3PDVXodYaufjPdy-3" value="+ Id: Integer" style="text;html=1;whiteSpace=wrap;strokeColor=none;fillColor=none;align=center;verticalAlign=middle;rounded=0;" vertex="1" parent="A9_kv3PDVXodYaufjPdy-2">
          <mxGeometry x="40" y="30" width="120" height="30" as="geometry" />
        </mxCell>
        <mxCell id="A9_kv3PDVXodYaufjPdy-4" value="+ locationId: Integer" style="text;html=1;whiteSpace=wrap;strokeColor=none;fillColor=none;align=center;verticalAlign=middle;rounded=0;" vertex="1" parent="A9_kv3PDVXodYaufjPdy-2">
          <mxGeometry x="40" y="60" width="120" height="30" as="geometry" />
        </mxCell>
        <mxCell id="A9_kv3PDVXodYaufjPdy-5" value="+ Address: String" style="text;html=1;whiteSpace=wrap;strokeColor=none;fillColor=none;align=center;verticalAlign=middle;rounded=0;" vertex="1" parent="A9_kv3PDVXodYaufjPdy-2">
          <mxGeometry x="40" y="90" width="120" height="30" as="geometry" />
        </mxCell>
        <mxCell id="A9_kv3PDVXodYaufjPdy-12" value="" style="endArrow=none;html=1;rounded=0;" edge="1" parent="A9_kv3PDVXodYaufjPdy-2">
          <mxGeometry width="50" height="50" relative="1" as="geometry">
            <mxPoint y="209" as="sourcePoint" />
            <mxPoint x="200" y="209" as="targetPoint" />
          </mxGeometry>
        </mxCell>
        <mxCell id="A9_kv3PDVXodYaufjPdy-13" value="+ getProducts()" style="text;html=1;whiteSpace=wrap;strokeColor=none;fillColor=none;align=center;verticalAlign=middle;rounded=0;" vertex="1" parent="A9_kv3PDVXodYaufjPdy-2">
          <mxGeometry x="45" y="210" width="110" height="30" as="geometry" />
        </mxCell>
        <mxCell id="BiYvOzU2MeM8PJyOFLf3-13" value="+ Product: {}" style="text;html=1;whiteSpace=wrap;strokeColor=none;fillColor=none;align=center;verticalAlign=middle;rounded=0;" vertex="1" parent="A9_kv3PDVXodYaufjPdy-2">
          <mxGeometry x="40" y="120" width="120" height="30" as="geometry" />
        </mxCell>
        <mxCell id="BiYvOzU2MeM8PJyOFLf3-18" style="edgeStyle=orthogonalEdgeStyle;rounded=0;orthogonalLoop=1;jettySize=auto;html=1;exitX=1;exitY=0.5;exitDx=0;exitDy=0;" edge="1" parent="A9_kv3PDVXodYaufjPdy-2" source="BiYvOzU2MeM8PJyOFLf3-17">
          <mxGeometry relative="1" as="geometry">
            <mxPoint x="450" y="360" as="targetPoint" />
            <Array as="points">
              <mxPoint x="360" y="165" />
            </Array>
          </mxGeometry>
        </mxCell>
        <mxCell id="BiYvOzU2MeM8PJyOFLf3-17" value="+ Order: {}" style="text;html=1;whiteSpace=wrap;strokeColor=none;fillColor=none;align=center;verticalAlign=middle;rounded=0;" vertex="1" parent="A9_kv3PDVXodYaufjPdy-2">
          <mxGeometry x="40" y="150" width="120" height="30" as="geometry" />
        </mxCell>
        <mxCell id="BiYvOzU2MeM8PJyOFLf3-27" value="+ getOrders()" style="text;html=1;whiteSpace=wrap;strokeColor=none;fillColor=none;align=center;verticalAlign=middle;rounded=0;" vertex="1" parent="A9_kv3PDVXodYaufjPdy-2">
          <mxGeometry x="45" y="240" width="110" height="30" as="geometry" />
        </mxCell>
        <mxCell id="A9_kv3PDVXodYaufjPdy-6" value="" style="endArrow=classic;html=1;rounded=0;exitX=1;exitY=0.5;exitDx=0;exitDy=0;" edge="1" parent="1" source="BiYvOzU2MeM8PJyOFLf3-13">
          <mxGeometry width="50" height="50" relative="1" as="geometry">
            <mxPoint x="240" y="200" as="sourcePoint" />
            <mxPoint x="500" y="80" as="targetPoint" />
            <Array as="points">
              <mxPoint x="400" y="175" />
              <mxPoint x="400" y="80" />
            </Array>
          </mxGeometry>
        </mxCell>
        <mxCell id="A9_kv3PDVXodYaufjPdy-8" value="&lt;div&gt;Product&lt;/div&gt;" style="swimlane;whiteSpace=wrap;html=1;" vertex="1" parent="1">
          <mxGeometry x="500" y="10" width="200" height="240" as="geometry" />
        </mxCell>
        <mxCell id="A9_kv3PDVXodYaufjPdy-9" value="+ Id: Integer" style="text;html=1;whiteSpace=wrap;strokeColor=none;fillColor=none;align=center;verticalAlign=middle;rounded=0;" vertex="1" parent="A9_kv3PDVXodYaufjPdy-8">
          <mxGeometry x="40" y="40" width="120" height="30" as="geometry" />
        </mxCell>
        <mxCell id="A9_kv3PDVXodYaufjPdy-10" value="+ Quantity: Integer" style="text;html=1;whiteSpace=wrap;strokeColor=none;fillColor=none;align=center;verticalAlign=middle;rounded=0;" vertex="1" parent="A9_kv3PDVXodYaufjPdy-8">
          <mxGeometry x="40" y="70" width="120" height="30" as="geometry" />
        </mxCell>
        <mxCell id="A9_kv3PDVXodYaufjPdy-11" value="+ Price: Float" style="text;html=1;whiteSpace=wrap;strokeColor=none;fillColor=none;align=center;verticalAlign=middle;rounded=0;" vertex="1" parent="A9_kv3PDVXodYaufjPdy-8">
          <mxGeometry x="40" y="100" width="120" height="30" as="geometry" />
        </mxCell>
        <mxCell id="BiYvOzU2MeM8PJyOFLf3-1" value="" style="endArrow=none;html=1;rounded=0;" edge="1" parent="A9_kv3PDVXodYaufjPdy-8">
          <mxGeometry width="50" height="50" relative="1" as="geometry">
            <mxPoint y="210" as="sourcePoint" />
            <mxPoint x="200" y="210" as="targetPoint" />
          </mxGeometry>
        </mxCell>
        <mxCell id="BiYvOzU2MeM8PJyOFLf3-2" value="GET products/:id" style="text;html=1;whiteSpace=wrap;strokeColor=none;fillColor=none;align=center;verticalAlign=middle;rounded=0;" vertex="1" parent="A9_kv3PDVXodYaufjPdy-8">
          <mxGeometry x="30" y="210" width="150" height="30" as="geometry" />
        </mxCell>
        <mxCell id="BiYvOzU2MeM8PJyOFLf3-14" value="+ Name: String" style="text;html=1;whiteSpace=wrap;strokeColor=none;fillColor=none;align=center;verticalAlign=middle;rounded=0;" vertex="1" parent="A9_kv3PDVXodYaufjPdy-8">
          <mxGeometry x="40" y="130" width="120" height="30" as="geometry" />
        </mxCell>
        <mxCell id="BiYvOzU2MeM8PJyOFLf3-19" value="Order" style="swimlane;whiteSpace=wrap;html=1;startSize=23;" vertex="1" parent="1">
          <mxGeometry x="490" y="320" width="200" height="210" as="geometry" />
        </mxCell>
        <mxCell id="BiYvOzU2MeM8PJyOFLf3-20" value="+ Id: Integer" style="text;html=1;whiteSpace=wrap;strokeColor=none;fillColor=none;align=center;verticalAlign=middle;rounded=0;" vertex="1" parent="BiYvOzU2MeM8PJyOFLf3-19">
          <mxGeometry x="40" y="40" width="120" height="30" as="geometry" />
        </mxCell>
        <mxCell id="BiYvOzU2MeM8PJyOFLf3-21" value="+&amp;nbsp; Quantity: Integer" style="text;html=1;whiteSpace=wrap;strokeColor=none;fillColor=none;align=center;verticalAlign=middle;rounded=0;" vertex="1" parent="BiYvOzU2MeM8PJyOFLf3-19">
          <mxGeometry x="40" y="70" width="120" height="30" as="geometry" />
        </mxCell>
        <mxCell id="BiYvOzU2MeM8PJyOFLf3-22" value="+ Status: String" style="text;html=1;whiteSpace=wrap;strokeColor=none;fillColor=none;align=center;verticalAlign=middle;rounded=0;" vertex="1" parent="BiYvOzU2MeM8PJyOFLf3-19">
          <mxGeometry x="40" y="100" width="120" height="30" as="geometry" />
        </mxCell>
        <mxCell id="BiYvOzU2MeM8PJyOFLf3-23" value="" style="endArrow=none;html=1;rounded=0;" edge="1" parent="BiYvOzU2MeM8PJyOFLf3-19">
          <mxGeometry width="50" height="50" relative="1" as="geometry">
            <mxPoint y="170" as="sourcePoint" />
            <mxPoint x="200" y="170" as="targetPoint" />
          </mxGeometry>
        </mxCell>
        <mxCell id="BiYvOzU2MeM8PJyOFLf3-24" value="GET orders/:id" style="text;html=1;whiteSpace=wrap;strokeColor=none;fillColor=none;align=center;verticalAlign=middle;rounded=0;" vertex="1" parent="BiYvOzU2MeM8PJyOFLf3-19">
          <mxGeometry x="25" y="170" width="150" height="30" as="geometry" />
        </mxCell>
        <mxCell id="BiYvOzU2MeM8PJyOFLf3-25" value="+ Date: String" style="text;html=1;whiteSpace=wrap;strokeColor=none;fillColor=none;align=center;verticalAlign=middle;rounded=0;" vertex="1" parent="BiYvOzU2MeM8PJyOFLf3-19">
          <mxGeometry x="40" y="130" width="120" height="30" as="geometry" />
        </mxCell>
        <mxCell id="BiYvOzU2MeM8PJyOFLf3-35" style="edgeStyle=orthogonalEdgeStyle;rounded=0;orthogonalLoop=1;jettySize=auto;html=1;exitX=0.5;exitY=1;exitDx=0;exitDy=0;" edge="1" parent="1" source="BiYvOzU2MeM8PJyOFLf3-28">
          <mxGeometry relative="1" as="geometry">
            <mxPoint x="-400" y="440" as="targetPoint" />
            <Array as="points">
              <mxPoint x="-100" y="360" />
              <mxPoint x="-400" y="360" />
            </Array>
          </mxGeometry>
        </mxCell>
        <mxCell id="BiYvOzU2MeM8PJyOFLf3-28" value="User" style="swimlane;whiteSpace=wrap;html=1;" vertex="1" parent="1">
          <mxGeometry x="-200" y="40" width="200" height="170" as="geometry" />
        </mxCell>
        <mxCell id="BiYvOzU2MeM8PJyOFLf3-29" value="&lt;div&gt;- Id: Integer&lt;/div&gt;" style="text;html=1;whiteSpace=wrap;strokeColor=none;fillColor=none;align=center;verticalAlign=middle;rounded=0;" vertex="1" parent="BiYvOzU2MeM8PJyOFLf3-28">
          <mxGeometry x="65" y="30" width="70" height="30" as="geometry" />
        </mxCell>
        <mxCell id="BiYvOzU2MeM8PJyOFLf3-30" value="+/ - Username: String" style="text;html=1;whiteSpace=wrap;strokeColor=none;fillColor=none;align=center;verticalAlign=middle;rounded=0;" vertex="1" parent="BiYvOzU2MeM8PJyOFLf3-28">
          <mxGeometry x="35" y="60" width="130" height="30" as="geometry" />
        </mxCell>
        <mxCell id="BiYvOzU2MeM8PJyOFLf3-31" value="- Password: String" style="text;html=1;whiteSpace=wrap;strokeColor=none;fillColor=none;align=center;verticalAlign=middle;rounded=0;" vertex="1" parent="BiYvOzU2MeM8PJyOFLf3-28">
          <mxGeometry x="42.5" y="90" width="115" height="30" as="geometry" />
        </mxCell>
        <mxCell id="BiYvOzU2MeM8PJyOFLf3-32" value="" style="endArrow=none;html=1;rounded=0;" edge="1" parent="BiYvOzU2MeM8PJyOFLf3-28">
          <mxGeometry width="50" height="50" relative="1" as="geometry">
            <mxPoint y="130" as="sourcePoint" />
            <mxPoint x="200" y="130" as="targetPoint" />
          </mxGeometry>
        </mxCell>
        <mxCell id="BiYvOzU2MeM8PJyOFLf3-33" value="GET users/:username" style="text;html=1;whiteSpace=wrap;strokeColor=none;fillColor=none;align=center;verticalAlign=middle;rounded=0;" vertex="1" parent="BiYvOzU2MeM8PJyOFLf3-28">
          <mxGeometry x="10" y="130" width="180" height="30" as="geometry" />
        </mxCell>
        <mxCell id="BiYvOzU2MeM8PJyOFLf3-36" value="" style="endArrow=classic;html=1;rounded=0;" edge="1" parent="1">
          <mxGeometry width="50" height="50" relative="1" as="geometry">
            <mxPoint x="-100" y="360" as="sourcePoint" />
            <mxPoint x="80" y="440" as="targetPoint" />
            <Array as="points">
              <mxPoint x="80" y="360" />
            </Array>
          </mxGeometry>
        </mxCell>
        <mxCell id="BiYvOzU2MeM8PJyOFLf3-37" value="Store Admin" style="swimlane;whiteSpace=wrap;html=1;" vertex="1" parent="1">
          <mxGeometry x="-490" y="440" width="200" height="170" as="geometry" />
        </mxCell>
        <mxCell id="BiYvOzU2MeM8PJyOFLf3-38" value="&lt;div&gt;- Id: Integer&lt;/div&gt;" style="text;html=1;whiteSpace=wrap;strokeColor=none;fillColor=none;align=center;verticalAlign=middle;rounded=0;" vertex="1" parent="BiYvOzU2MeM8PJyOFLf3-37">
          <mxGeometry x="65" y="30" width="70" height="30" as="geometry" />
        </mxCell>
        <mxCell id="BiYvOzU2MeM8PJyOFLf3-39" value="+/ - Username: String" style="text;html=1;whiteSpace=wrap;strokeColor=none;fillColor=none;align=center;verticalAlign=middle;rounded=0;" vertex="1" parent="BiYvOzU2MeM8PJyOFLf3-37">
          <mxGeometry x="35" y="60" width="130" height="30" as="geometry" />
        </mxCell>
        <mxCell id="BiYvOzU2MeM8PJyOFLf3-40" value="- Password: String" style="text;html=1;whiteSpace=wrap;strokeColor=none;fillColor=none;align=center;verticalAlign=middle;rounded=0;" vertex="1" parent="BiYvOzU2MeM8PJyOFLf3-37">
          <mxGeometry x="42.5" y="90" width="115" height="30" as="geometry" />
        </mxCell>
        <mxCell id="BiYvOzU2MeM8PJyOFLf3-55" style="edgeStyle=orthogonalEdgeStyle;rounded=0;orthogonalLoop=1;jettySize=auto;html=1;exitX=1;exitY=0.5;exitDx=0;exitDy=0;" edge="1" parent="BiYvOzU2MeM8PJyOFLf3-37" source="BiYvOzU2MeM8PJyOFLf3-53">
          <mxGeometry relative="1" as="geometry">
            <mxPoint x="710" y="-120" as="targetPoint" />
            <Array as="points">
              <mxPoint x="249" y="135" />
              <mxPoint x="249" y="230" />
              <mxPoint x="710" y="230" />
            </Array>
          </mxGeometry>
        </mxCell>
        <mxCell id="BiYvOzU2MeM8PJyOFLf3-53" value="+ storeId: Integer" style="text;html=1;whiteSpace=wrap;strokeColor=none;fillColor=none;align=center;verticalAlign=middle;rounded=0;" vertex="1" parent="BiYvOzU2MeM8PJyOFLf3-37">
          <mxGeometry x="42.5" y="120" width="115" height="30" as="geometry" />
        </mxCell>
        <mxCell id="BiYvOzU2MeM8PJyOFLf3-43" value="Customer" style="swimlane;whiteSpace=wrap;html=1;" vertex="1" parent="1">
          <mxGeometry x="-20" y="440" width="200" height="170" as="geometry" />
        </mxCell>
        <mxCell id="BiYvOzU2MeM8PJyOFLf3-44" value="&lt;div&gt;- Id: Integer&lt;/div&gt;" style="text;html=1;whiteSpace=wrap;strokeColor=none;fillColor=none;align=center;verticalAlign=middle;rounded=0;" vertex="1" parent="BiYvOzU2MeM8PJyOFLf3-43">
          <mxGeometry x="65" y="30" width="70" height="30" as="geometry" />
        </mxCell>
        <mxCell id="BiYvOzU2MeM8PJyOFLf3-45" value="+/ - Username: String" style="text;html=1;whiteSpace=wrap;strokeColor=none;fillColor=none;align=center;verticalAlign=middle;rounded=0;" vertex="1" parent="BiYvOzU2MeM8PJyOFLf3-43">
          <mxGeometry x="35" y="60" width="130" height="30" as="geometry" />
        </mxCell>
        <mxCell id="BiYvOzU2MeM8PJyOFLf3-46" value="- Password: String" style="text;html=1;whiteSpace=wrap;strokeColor=none;fillColor=none;align=center;verticalAlign=middle;rounded=0;" vertex="1" parent="BiYvOzU2MeM8PJyOFLf3-43">
          <mxGeometry x="42.5" y="90" width="115" height="30" as="geometry" />
        </mxCell>
      </root>
    </mxGraphModel>
  </diagram>
</mxfile>
